<svg width="25" height="25" viewBox="0 0 25 25" fill="none" xmlns="http://www.w3.org/2000/svg">
<path d="M17.3124 3.11459C17.1915 2.99333 17.0478 2.89713 16.8896 2.83149C16.7314 2.76584 16.5618 2.73206 16.3906 2.73206C16.2193 2.73206 16.0497 2.76584 15.8915 2.83149C15.7333 2.89713 15.5896 2.99333 15.4687 3.11459L6.81244 11.7708C6.71588 11.8672 6.63926 11.9817 6.58699 12.1077C6.53472 12.2337 6.50781 12.3688 6.50781 12.5052C6.50781 12.6416 6.53472 12.7767 6.58699 12.9027C6.63926 13.0288 6.71588 13.1432 6.81244 13.2396L15.4687 21.8958C15.9791 22.4063 16.802 22.4063 17.3124 21.8958C17.8229 21.3854 17.8229 20.5625 17.3124 20.0521L9.77077 12.5L17.3229 4.94792C17.8229 4.44792 17.8229 3.61459 17.3124 3.11459Z" fill="#F2F2F2"/>
</svg>
