<svg width="29" height="29" viewBox="0 0 29 29" fill="none" xmlns="http://www.w3.org/2000/svg">
<path d="M14.5001 0.0999756C6.5471 0.0999756 0.100098 6.54698 0.100098 14.5C0.100098 22.453 6.5471 28.9 14.5001 28.9C22.4531 28.9 28.9001 22.453 28.9001 14.5C28.9001 6.54698 22.4531 0.0999756 14.5001 0.0999756ZM10.9751 20.4685H8.0591V11.0845H10.9751V20.4685ZM9.4991 9.93248C8.5781 9.93248 7.9826 9.27997 7.9826 8.47297C7.9826 7.64948 8.5961 7.01648 9.5366 7.01648C10.4771 7.01648 11.0531 7.64948 11.0711 8.47297C11.0711 9.27997 10.4771 9.93248 9.4991 9.93248ZM21.6251 20.4685H18.7091V15.268C18.7091 14.0575 18.2861 13.2355 17.2316 13.2355C16.4261 13.2355 15.9476 13.792 15.7361 14.3275C15.6581 14.518 15.6386 14.788 15.6386 15.0565V20.467H12.7211V14.077C12.7211 12.9055 12.6836 11.926 12.6446 11.083H15.1781L15.3116 12.3865H15.3701C15.7541 11.7745 16.6946 10.8715 18.2681 10.8715C20.1866 10.8715 21.6251 12.157 21.6251 14.92V20.4685Z" fill="#0B1C3D"/>
</svg>
