<svg width="23" height="23" viewBox="0 0 23 23" fill="none" xmlns="http://www.w3.org/2000/svg">
<path fill-rule="evenodd" clip-rule="evenodd" d="M11.4998 3.83335C10.1589 3.83311 8.84136 4.18457 7.6787 4.85266C6.51604 5.52076 5.54895 6.48211 4.87395 7.64077C4.19894 8.79943 3.83964 10.1149 3.8319 11.4558C3.82416 12.7967 4.16826 14.1162 4.82985 15.2826C5.27702 14.7014 5.85184 14.2309 6.50989 13.9073C7.16793 13.5838 7.89157 13.4159 8.62485 13.4167H14.3748C15.1081 13.4159 15.8318 13.5838 16.4898 13.9073C17.1479 14.2309 17.7227 14.7014 18.1698 15.2826C18.8314 14.1162 19.1755 12.7967 19.1678 11.4558C19.1601 10.1149 18.8008 8.79943 18.1257 7.64077C17.4507 6.48211 16.4837 5.52076 15.321 4.85266C14.1583 4.18457 12.8408 3.83311 11.4998 3.83335ZM19.1119 17.3229C19.232 17.1663 19.347 17.006 19.4569 16.8418C20.5193 15.2631 21.0857 13.4029 21.0832 11.5C21.0832 6.20714 16.7927 1.91669 11.4998 1.91669C6.20697 1.91669 1.91651 6.20714 1.91651 11.5C1.91349 13.6052 2.60655 15.6524 3.88781 17.3229L3.88301 17.3401L4.22322 17.7359C5.12203 18.7867 6.23801 19.6301 7.49424 20.208C8.75046 20.7859 10.1171 21.0846 11.4998 21.0834C11.7068 21.0834 11.9126 21.077 12.117 21.0642C13.8462 20.9551 15.513 20.377 16.9384 19.3919C17.6201 18.9216 18.2379 18.365 18.7765 17.7359L19.1167 17.3401L19.1119 17.3229ZM11.4998 5.75002C10.7373 5.75002 10.0061 6.05292 9.46691 6.59209C8.92775 7.13125 8.62485 7.86252 8.62485 8.62502C8.62485 9.38752 8.92775 10.1188 9.46691 10.658C10.0061 11.1971 10.7373 11.5 11.4998 11.5C12.2623 11.5 12.9936 11.1971 13.5328 10.658C14.0719 10.1188 14.3748 9.38752 14.3748 8.62502C14.3748 7.86252 14.0719 7.13125 13.5328 6.59209C12.9936 6.05292 12.2623 5.75002 11.4998 5.75002Z" fill="#5D5D64"/>
</svg>
