<svg width="30" height="30" viewBox="0 0 30 30" fill="none" xmlns="http://www.w3.org/2000/svg">
<path d="M12.4126 16.2375C12.5376 16.2375 15.4376 16.3625 17.1626 15.9375H17.1751C19.1626 15.45 21.9251 14.05 22.6376 9.475C22.6376 9.475 24.2251 3.75 16.3501 3.75H9.58757C8.97507 3.75 8.45007 4.2 8.35007 4.8L5.47507 23C5.41257 23.375 5.71257 23.725 6.08757 23.725H10.3751L11.4251 17.075C11.5001 16.6 11.9126 16.2375 12.4126 16.2375Z" fill="#0B1C3D"/>
<path d="M23.7374 10.3625C22.7249 15.025 19.5374 17.4875 14.4624 17.4875H12.6249L11.3374 25.6375C11.2874 25.9625 11.5374 26.25 11.8624 26.25H14.2374C14.6624 26.25 15.0374 25.9375 15.0999 25.5125C15.1999 25.0125 15.7499 21.3625 15.8624 20.7375C15.9249 20.3125 16.2999 20 16.7249 20H17.2749C20.7999 20 23.5624 18.5625 24.3749 14.425C24.6999 12.75 24.5249 11.375 23.7374 10.3625Z" fill="#0B1C3D"/>
</svg>
