<svg width="30" height="30" viewBox="0 0 30 30" fill="none" xmlns="http://www.w3.org/2000/svg">
<path d="M15.2074 3.75C16.2024 3.75 19.5762 4.02875 21.1687 7.59125C21.7012 8.79 21.5737 10.8275 21.4687 12.4637L21.4662 12.5225C21.4524 12.705 21.4437 12.87 21.4362 13.035C21.5593 13.102 21.6987 13.1332 21.8387 13.125C22.1399 13.1088 22.5012 13.005 22.8774 12.8237C23.0221 12.7516 23.182 12.7156 23.3437 12.7188C23.5262 12.7188 23.7049 12.7475 23.8549 12.8088C24.3062 12.9587 24.5924 13.29 24.5924 13.6512C24.6082 14.1029 24.202 14.4942 23.3737 14.825C23.2849 14.8537 23.1624 14.9013 23.0287 14.945C22.5749 15.0813 21.8824 15.3063 21.6874 15.7588C21.5974 15.985 21.6262 16.285 21.8099 16.63L21.8249 16.6463C21.8849 16.7825 23.3599 20.14 26.6424 20.6825C26.7629 20.7016 26.8723 20.7642 26.9499 20.8584C27.0274 20.9525 27.0679 21.0718 27.0637 21.1938C27.0637 21.2679 27.0487 21.3433 27.0187 21.42C26.7774 21.9912 25.7399 22.4137 23.8562 22.6962C23.7974 22.7875 23.7362 23.0737 23.6912 23.27C23.6637 23.45 23.6162 23.6312 23.5574 23.825C23.4812 24.0975 23.2862 24.2313 22.9999 24.2313H22.9699C22.7877 24.2225 22.6066 24.1978 22.4287 24.1575C22.0081 24.0667 21.5789 24.0215 21.1487 24.0225C20.8487 24.0225 20.5487 24.0375 20.2337 24.0975C19.6299 24.2025 19.1037 24.5638 18.5012 24.985C17.6424 25.5863 16.6649 26.28 15.1899 26.28C15.1299 26.28 15.0699 26.265 15.0074 26.265H14.8587C13.3824 26.265 12.4199 25.5863 11.5624 24.97C10.9612 24.5475 10.4499 24.1875 9.84616 24.0812C9.53781 24.0352 9.22667 24.0101 8.91491 24.0063C8.37116 24.0063 7.95116 24.0963 7.63616 24.1562C7.42366 24.2 7.24366 24.23 7.09241 24.23C6.9606 24.24 6.82947 24.2033 6.72203 24.1262C6.6146 24.0492 6.53773 23.9368 6.50491 23.8088C6.44491 23.6163 6.41616 23.4175 6.37116 23.2388C6.32366 23.0562 6.26491 22.7437 6.20491 22.6662C4.27616 22.4425 3.23866 22.02 2.99866 21.4338C2.96632 21.3624 2.94766 21.2857 2.94366 21.2075C2.93941 21.0856 2.97989 20.9663 3.05748 20.8721C3.13507 20.7779 3.24441 20.7154 3.36491 20.6962C6.64616 20.1537 8.12116 16.7975 8.18241 16.6562L8.19866 16.6275C8.37991 16.2812 8.42366 15.9775 8.31866 15.7537C8.12366 15.3175 7.42991 15.0925 6.98116 14.9412C6.86212 14.9099 6.74555 14.8698 6.63241 14.8213C5.51991 14.3838 5.36866 13.8863 5.42991 13.5413C5.51991 13.0613 6.10616 12.745 6.60366 12.745C6.74991 12.745 6.87491 12.7737 6.98866 12.82C7.40991 13.0137 7.78241 13.1213 8.09866 13.1213C8.26071 13.1273 8.4215 13.0907 8.56491 13.015L8.51366 12.4425C8.41366 10.8088 8.28616 8.77375 8.82241 7.58125C10.3674 4.03625 13.7337 3.76375 14.7274 3.76375L15.1462 3.75H15.2074Z" fill="#0B1C3D"/>
</svg>
