<svg width="30" height="30" viewBox="0 0 30 30" fill="none" xmlns="http://www.w3.org/2000/svg">
<path d="M20.8813 13.885C20.6788 10.1512 18.6388 8.01375 15.2138 7.9925C13.1488 7.98 11.4226 8.855 10.3651 10.4587L12.2501 11.75C13.0426 10.5487 14.2938 10.3 15.2001 10.3088C16.3288 10.3162 17.1788 10.6438 17.7301 11.2838C18.1301 11.7488 18.3988 12.3925 18.5326 13.2037C17.5309 13.0337 16.4517 12.9817 15.2951 13.0475C12.0376 13.235 9.94506 15.135 10.0851 17.7738C10.1563 19.1125 10.8226 20.265 11.9626 21.0175C12.9251 21.6537 14.1676 21.9637 15.4563 21.8937C17.1601 21.8 18.4963 21.1513 19.4288 19.9625C20.1363 19.06 20.5838 17.89 20.7813 16.4175C21.5938 16.9075 22.1938 17.5513 22.5276 18.3263C23.0926 19.6438 23.1251 21.8087 21.3588 23.5737C19.8113 25.1187 17.9513 25.7887 15.1401 25.8088C12.0213 25.7862 9.66256 24.785 8.13006 22.8362C6.69256 21.0112 5.95131 18.3738 5.92381 15C5.95131 11.625 6.69381 8.98875 8.13006 7.1625C9.66256 5.21375 12.0213 4.21375 15.1401 4.19125C18.2813 4.215 20.6801 5.21875 22.2726 7.17875C23.0538 8.13875 23.6413 9.34625 24.0301 10.7537L26.2376 10.1663C25.7663 8.4325 25.0263 6.93875 24.0201 5.7C21.9788 3.1875 18.9788 1.90125 15.1326 1.875C11.2938 1.90125 8.34256 3.19375 6.35881 5.71375C4.59506 7.9575 3.68381 11.0962 3.65381 15.0087C3.68381 18.9212 4.59506 22.0425 6.35881 24.2863C8.34256 26.8063 11.3088 28.0987 15.1463 28.125C18.5601 28.1012 20.9651 27.2075 22.9463 25.2288C25.5401 22.6375 25.4613 19.3912 24.6076 17.3987C23.9513 15.8675 22.6451 14.6413 20.8826 13.8863M15.3351 19.5825C13.9076 19.6625 12.4251 19.0225 12.3513 17.65C12.2976 16.6325 13.0763 15.4975 15.4226 15.3625C16.483 15.2915 17.5481 15.3646 18.5888 15.58C18.3188 18.9575 16.7326 19.505 15.3351 19.5825Z" fill="#0B1C3D"/>
</svg>
